<?xml version="1.0" standalone="no"?>
<!DOCTYPE svg PUBLIC "-//W3C//DTD SVG 20010904//EN"
 "http://www.w3.org/TR/2001/REC-SVG-20010904/DTD/svg10.dtd">
<svg version="1.0" xmlns="http://www.w3.org/2000/svg"
 width="960.000000pt" height="960.000000pt" viewBox="0 0 960.000000 960.000000"
 preserveAspectRatio="xMidYMid meet">
<metadata>
Created by potrace 1.11, written by Peter Selinger 2001-2013
</metadata>
<g transform="translate(0.000000,960.000000) scale(0.100000,-0.100000)"
fill="#000000" stroke="none">
<path d="M4605 9278 c-11 -6 -44 -36 -73 -67 -51 -54 -210 -224 -266 -286 -36
-39 -192 -208 -231 -250 -16 -18 -75 -81 -130 -140 -55 -60 -109 -118 -120
-129 -11 -12 -69 -75 -130 -141 -60 -66 -119 -129 -130 -141 -20 -21 -187
-202 -280 -303 -27 -30 -63 -69 -80 -86 -16 -18 -70 -76 -120 -130 -49 -54
-101 -110 -115 -124 -14 -14 -72 -77 -130 -140 -58 -63 -116 -126 -130 -141
-14 -15 -45 -49 -70 -76 -25 -27 -104 -112 -175 -189 -176 -190 -335 -362
-364 -394 -13 -14 -74 -80 -135 -146 -61 -66 -138 -149 -171 -184 -33 -36 -71
-77 -85 -92 -14 -14 -50 -53 -80 -86 -156 -169 -258 -279 -280 -303 -14 -14
-63 -68 -110 -120 -47 -51 -96 -103 -108 -114 -13 -12 -32 -37 -42 -56 -19
-36 -18 -47 14 -215 3 -16 8 -43 11 -60 3 -16 10 -50 15 -75 5 -25 14 -72 20
-105 5 -33 12 -71 15 -85 3 -14 9 -50 15 -80 6 -30 12 -66 15 -80 3 -14 18
-97 34 -185 17 -88 32 -170 35 -181 2 -12 7 -37 10 -55 3 -19 8 -45 11 -59 3
-14 10 -52 15 -85 6 -33 17 -91 25 -130 13 -67 17 -86 30 -165 3 -19 8 -42 10
-50 2 -8 7 -31 10 -50 3 -19 8 -42 10 -50 2 -8 6 -31 9 -50 3 -19 10 -60 16
-90 11 -53 13 -64 26 -140 8 -44 8 -47 39 -210 15 -74 28 -146 31 -160 2 -14
9 -47 14 -75 5 -27 12 -63 15 -80 3 -16 7 -43 10 -60 3 -16 9 -50 15 -75 5
-25 14 -76 21 -115 18 -108 28 -141 47 -163 13 -16 229 -180 380 -290 27 -20
165 -122 202 -151 22 -17 569 -424 629 -468 83 -62 306 -229 356 -267 33 -25
242 -181 465 -347 511 -380 613 -456 625 -466 6 -5 90 -68 189 -141 l178 -133
53 3 c30 2 51 7 49 13 -2 6 42 44 99 87 97 72 317 239 364 276 12 9 34 26 49
37 34 25 794 602 814 618 9 7 42 32 75 56 33 25 62 47 65 51 3 3 21 17 40 30
19 13 37 27 40 30 3 3 30 23 60 45 30 22 57 42 60 45 3 3 32 25 65 50 33 25
177 134 320 243 143 108 319 242 391 296 142 108 126 89 346 406 61 88 135
194 164 235 29 41 78 111 108 155 30 44 80 116 111 160 31 44 76 109 101 145
24 36 82 119 129 185 46 66 109 156 139 200 31 44 68 98 84 120 131 186 144
209 139 242 -3 18 -76 216 -162 441 -164 426 -215 557 -272 707 -19 50 -50
128 -68 175 -18 47 -104 270 -190 495 -86 226 -184 480 -216 565 -33 85 -83
214 -110 285 -135 350 -111 307 -224 404 -55 47 -107 93 -115 101 -8 9 -64 58
-125 110 -60 52 -128 111 -150 131 -22 20 -103 91 -180 159 -77 67 -167 146
-200 175 -33 29 -139 121 -235 205 -96 85 -177 156 -180 159 -3 4 -34 31 -70
61 -36 30 -76 66 -91 80 -14 14 -47 43 -73 64 -27 22 -58 49 -70 60 -12 12
-55 50 -96 86 -41 36 -88 77 -105 91 -93 82 -238 209 -295 259 -36 32 -108 95
-160 140 -52 45 -111 97 -130 114 -19 17 -71 63 -115 101 -44 39 -91 81 -105
93 -26 25 -80 52 -102 52 -7 0 -22 -6 -33 -12z"/>
</g>
</svg>
